# xmcd
#
# Track frame offsets: 
#        150
#        23770
#        41237
#        64860
#        87016
#        100773
#        114718
#        130630
#        149245
#
# Disc length: 2361 seconds
#
# Revision: 0
# Processed by: cddbd v1.5.2PL0 Copyright (c) Steve Scherf et al.
# Submitted via: ExactAudioCopy v0.95b3
#
DISCID=7c093709
DTITLE=The Guess Who  - American Woman (1970) [VINYL] (Cisco Kevin Gra
DTITLE=y)
DYEAR=1900
DGENRE=
TTITLE0=American Woman
TTITLE1=No Time
TTITLE2=The Talisman
TTITLE3=No Sugar Tonight\\New Mother Nature
TTITLE4=969 (The Oldest Man) (Instrumental)
TTITLE5=When Friends Fall Out
TTITLE6=8:15
TTITLE7=Proper Stranger
TTITLE8=Humpty's Blues\\American Woman (Epilogue)
EXTD=
EXTT0=
EXTT1=
EXTT2=
EXTT3=
EXTT4=
EXTT5=
EXTT6=
EXTT7=
EXTT8=
PLAYORDER=
